<svg width="48" height="48" viewBox="0 0 48 48" fill="none" xmlns="http://www.w3.org/2000/svg">
<g clip-path="url(#clip0_206_78)">
<path d="M44.2227 12.936L29.2227 4.68603C29.0013 4.56423 28.7526 4.50037 28.4999 4.50037C28.2471 4.50037 27.9985 4.56423 27.777 4.68603L12.777 12.936C12.5418 13.0655 12.3457 13.2557 12.2091 13.4869C12.0725 13.718 12.0005 13.9816 12.0005 14.25C12.0005 14.5185 12.0725 14.782 12.2091 15.0132C12.3457 15.2443 12.5418 15.4345 12.777 15.564L26.9999 23.387V39.4629L22.4456 36.959L20.9999 39.5868L27.777 43.314C27.9984 43.436 28.2471 43.5 28.4999 43.5C28.7527 43.5 29.0013 43.436 29.2227 43.314L44.2227 35.064C44.458 34.9346 44.6543 34.7444 44.791 34.5133C44.9277 34.2822 44.9998 34.0186 44.9999 33.75V14.25C44.9998 13.9815 44.9277 13.7179 44.791 13.4868C44.6543 13.2556 44.458 13.0654 44.2227 12.936ZM28.4999 7.71243L40.3871 14.25L28.4999 20.7876L16.6127 14.25L28.4999 7.71243ZM41.9999 32.8631L29.9999 39.4631V23.387L41.9999 16.787V32.8631Z" fill="#434343"/>
<path d="M3 24H15V21H3V24Z" fill="#434343"/>
<path d="M6 36H18V33H6V36Z" fill="#434343"/>
<path d="M9 30H21V27H9V30Z" fill="#434343"/>
</g>
<defs>
<clipPath id="clip0_206_78">
<rect width="48" height="48" fill="white"/>
</clipPath>
</defs>
</svg>
