<svg width="48" height="48" viewBox="0 0 48 48" fill="none" xmlns="http://www.w3.org/2000/svg">
<g clip-path="url(#clip0_206_70)">
<path d="M18 15.0001H10.17C12.11 12.0185 14.9616 9.74381 18.2997 8.51492C21.6378 7.28604 25.2837 7.16882 28.6938 8.18074C32.104 9.19265 35.0958 11.2795 37.2234 14.1302C39.3509 16.981 40.5002 20.4429 40.5 24.0001H43.5C43.5041 19.9883 42.2708 16.0729 39.9682 12.7877C37.6656 9.50256 34.4058 7.00753 30.6333 5.64286C26.8607 4.27819 22.7591 4.1103 18.8877 5.16207C15.0162 6.21384 11.5634 8.43408 9 11.5201V6.00006H6V18.0001H18V15.0001Z" fill="#434343"/>
<path d="M30 33H37.83C35.89 35.9815 33.0384 38.2563 29.7003 39.4851C26.3622 40.714 22.7163 40.8312 19.3062 39.8193C15.896 38.8074 12.9042 36.7205 10.7766 33.8698C8.6491 31.0191 7.49978 27.5571 7.50001 24H4.50001C4.49588 28.0118 5.7292 31.9272 8.0318 35.2123C10.3344 38.4975 13.5942 40.9925 17.3667 42.3572C21.1393 43.7219 25.2409 43.8898 29.1123 42.838C32.9838 41.7862 36.4366 39.566 39 36.48V42H42V30H30V33Z" fill="#434343"/>
</g>
<defs>
<clipPath id="clip0_206_70">
<rect width="48" height="48" fill="white"/>
</clipPath>
</defs>
</svg>
