<svg width="48" height="48" viewBox="0 0 48 48" fill="none" xmlns="http://www.w3.org/2000/svg">
<g clip-path="url(#clip0_206_55)">
<path d="M46.4101 23.49C44.6459 18.9265 41.5831 14.9799 37.6003 12.1381C33.6175 9.29633 28.8893 7.68386 24.0001 7.5C19.1109 7.68386 14.3827 9.29633 10.3999 12.1381C6.41712 14.9799 3.35434 18.9265 1.59009 23.49C1.47095 23.8196 1.47095 24.1804 1.59009 24.51C3.35434 29.0735 6.41712 33.0201 10.3999 35.8619C14.3827 38.7037 19.1109 40.3161 24.0001 40.5C28.8893 40.3161 33.6175 38.7037 37.6003 35.8619C41.5831 33.0201 44.6459 29.0735 46.4101 24.51C46.5292 24.1804 46.5292 23.8196 46.4101 23.49ZM24.0001 37.5C16.0501 37.5 7.65009 31.605 4.60509 24C7.65009 16.395 16.0501 10.5 24.0001 10.5C31.9501 10.5 40.3501 16.395 43.3951 24C40.3501 31.605 31.9501 37.5 24.0001 37.5Z" fill="#434343"/>
<path d="M24 15C22.22 15 20.4799 15.5278 18.9999 16.5168C17.5198 17.5057 16.3663 18.9113 15.6851 20.5558C15.0039 22.2004 14.8257 24.01 15.1729 25.7558C15.5202 27.5016 16.3774 29.1053 17.636 30.364C18.8947 31.6226 20.4984 32.4798 22.2442 32.8271C23.99 33.1743 25.7996 32.9961 27.4442 32.3149C29.0887 31.6337 30.4943 30.4802 31.4832 29.0001C32.4722 27.5201 33 25.78 33 24C33 21.6131 32.0518 19.3239 30.364 17.636C28.6761 15.9482 26.387 15 24 15ZM24 30C22.8133 30 21.6533 29.6481 20.6666 28.9888C19.6799 28.3295 18.9109 27.3925 18.4567 26.2961C18.0026 25.1997 17.8838 23.9933 18.1153 22.8295C18.3468 21.6656 18.9182 20.5965 19.7574 19.7574C20.5965 18.9182 21.6656 18.3468 22.8295 18.1153C23.9933 17.8838 25.1997 18.0026 26.2961 18.4567C27.3925 18.9108 28.3295 19.6799 28.9888 20.6666C29.6481 21.6533 30 22.8133 30 24C30 25.5913 29.3679 27.1174 28.2426 28.2426C27.1174 29.3679 25.5913 30 24 30Z" fill="#434343"/>
</g>
<defs>
<clipPath id="clip0_206_55">
<rect width="48" height="48" fill="white"/>
</clipPath>
</defs>
</svg>
